HIERARCHY
ROOT Hips
{
	OFFSET 0.00000 0.00000 0.00000
	CHANNELS 6 Xposition Yposition Zposition Zrotation Yrotation Xrotation 
	JOINT LHipJoint
	{
		OFFSET 0 0 0
		CHANNELS 3 Zrotation Yrotation Xrotation
		JOINT LeftHip
		{
			OFFSET 1.84395 -1.68683 0.74144
			CHANNELS 3 Zrotation Yrotation Xrotation
			JOINT LeftKnee
			{
				OFFSET 2.27037 -6.23779 0.00000
				CHANNELS 3 Zrotation Yrotation Xrotation
				JOINT LeftAnkle
				{
					OFFSET 2.56918 -7.05877 0.00000
					CHANNELS 3 Zrotation Yrotation Xrotation
					JOINT LeftToe
					{
						OFFSET 0.22276 -0.61202 1.71784
						CHANNELS 3 Zrotation Yrotation Xrotation
						End Site
						{
							OFFSET 0.00000 -0.00000 0.91613
						}
					}
				}
			}
		}
	}
	JOINT RHipJoint
	{
		OFFSET 0 0 0
		CHANNELS 3 Zrotation Yrotation Xrotation
		JOINT RightHip
		{
			OFFSET -1.76833 -1.68684 0.74144
			CHANNELS 3 Zrotation Yrotation Xrotation
			JOINT RightKnee
			{
				OFFSET -2.49360 -6.85110 0.00000
				CHANNELS 3 Zrotation Yrotation Xrotation
				JOINT RightAnkle
				{
					OFFSET -2.55538 -7.02085 0.00000
					CHANNELS 3 Zrotation Yrotation Xrotation
					JOINT RightToe
					{
						OFFSET -0.21516 -0.59115 1.68050
						CHANNELS 3 Zrotation Yrotation Xrotation
						End Site
						{
							OFFSET -0.00000 -0.00000 0.89604
						}
					}
				}
			}
		}
	}
	JOINT lowerback
	{
		OFFSET 0 0 0
		CHANNELS 3 Zrotation Yrotation Xrotation
		JOINT Chest
		{
			OFFSET 0.06382 1.72312 -0.19613
			CHANNELS 3 Zrotation Yrotation Xrotation
			JOINT Chest2
			{
				OFFSET -0.00055 1.73507 0.23859
				CHANNELS 3 Zrotation Yrotation Xrotation
				JOINT lowerneck
				{
					OFFSET 0 0 0
					CHANNELS 3 Zrotation Yrotation Xrotation
					JOINT Neck
					{
						OFFSET 0.03638 1.65562 0.09633
						CHANNELS 3 Zrotation Yrotation Xrotation
						JOINT Head
						{
							OFFSET 0.06388 1.62807 -0.32386
							CHANNELS 3 Zrotation Yrotation Xrotation
							End Site
							{
								OFFSET 0.00995 1.67644 -0.12021
							}
						}
					}
				}
				JOINT LeftCollar
				{
					OFFSET 0 0 0
					CHANNELS 3 Zrotation Yrotation Xrotation
					JOINT LeftShoulder
					{
						OFFSET 3.09648 1.42991 0.28122
CHANNELS 3 Zrotation Xrotation Yrotation
						JOINT LeftElbow
						{
OFFSET 0 -5.118780 -0.000000
CHANNELS 3 Zrotation Xrotation Yrotation
							JOINT LeftWrist
							{
OFFSET 0 -3.599710 0.000000
CHANNELS 3 Zrotation Xrotation Yrotation
								JOINT lhand
								{
									OFFSET 0 0 0
CHANNELS 3 Zrotation Xrotation Yrotation
									JOINT LFingers
									{
OFFSET 0 -0.628770 0.000000
CHANNELS 3 Zrotation Xrotation Yrotation
										End Site
										{
OFFSET 0 -0.506930 0.000000
										}
									}
								}
								JOINT LThumb
								{
OFFSET 0 0.000000 0.000000
CHANNELS 3 Zrotation Xrotation Yrotation
									End Site
									{
OFFSET 0 -0.514670 0.514670
									}
								}
							}
						}
					}
				}
				JOINT RightCollar
				{
					OFFSET 0 0 0
					CHANNELS 3 Zrotation Yrotation Xrotation
					JOINT RightShoulder
					{
						OFFSET -3.33565 1.14597 0.05047
CHANNELS 3 Zrotation Xrotation Yrotation
						JOINT RightElbow
						{
OFFSET 0 -5.490200 0.000000
CHANNELS 3 Zrotation Xrotation Yrotation
							JOINT RightWrist
							{
OFFSET 0 -3.206590 -0.000000
CHANNELS 3 Zrotation Xrotation Yrotation
								JOINT rhand
								{
									OFFSET 0 0 0
CHANNELS 3 Zrotation Xrotation Yrotation
									JOINT RFingers
									{
OFFSET 0 -0.691880 0.000000
CHANNELS 3 Zrotation Xrotation Yrotation
										End Site
										{
OFFSET 0 -0.557810 0.000000
										}
									}
								}
								JOINT RThumb
								{
OFFSET 0 0.000000 0.000000
CHANNELS 3 Zrotation Xrotation Yrotation
									End Site
									{
OFFSET 0 -0.566330 0.566330
									}
								}
							}
						}
					}
				}
			}
		}
	}
}
MOTION
Frames: 11
Frame Time: .0083333
0.0536 17.4852 8.0621 -7.9715 0.3032 10.9600 0.0000 0.0000 0.0000 -20.9086 -45.5141 25.1720 0.0645 -1.6385 -4.5076 -5.6724 43.8098 -43.6784 0.5218 4.6296 12.8550 0.0000 0.0000 0.0000 26.1769 25.5253 4.0992 -0.0116 -0.6952 1.9106 1.1849 -22.0657 -20.7164 -2.2458 -9.3603 26.9290 3.6967 0.9838 -0.9675 2.3559 1.7819 -11.7586 0.3265 0.6504 -12.0702 -11.9669 -12.4479 1.8660 10.6494 -18.2209 14.0781 4.1028 -9.0730 6.0354 -0.0000 -0.0000 0.0000 -4.649 12.9909 -9.3127 10.8588 -18.0715 1.7319 7.8824 40.4228 15.7975 0.0 0.0 0.0 -7.1250 0.0 0.0 -13.2546 14.33 -9.8332 -0.0000 -0.0000 0.0000 1.638 13.3383 6.6106 -12.9967 -21.2824 -2.4521 9.1392 38.6725 33.7387 0.0 0.0 0.0 7.1250 0.0 -0.0 45.6712 57.5875 -16.3049
0.0540 17.4861 8.0634 -7.9808 0.3010 10.9693 0.0000 0.0000 0.0000 -20.9154 -45.5263 25.2087 0.0653 -1.6493 -4.5375 -5.7521 43.8959 -43.5714 0.5060 4.5600 12.6578 0.0000 0.0000 0.0000 26.1721 25.5087 4.0696 -0.0105 -0.6631 1.8221 1.1958 -22.1551 -20.7937 -1.4450 -7.5993 21.5034 3.7101 0.9827 -0.9994 2.3611 1.7793 -11.7501 0.3254 0.6485 -12.0405 -11.9671 -12.4441 1.8959 10.6833 -18.2166 14.0103 4.1172 -9.0712 6.0116 -0.0000 0.0000 0.0000 -4.6681 12.995 -9.9267 10.7919 -17.9686 1.7112 8.8998 38.6484 15.6425 0.0 0.0 0.0 -7.1250 0.0 0.0 -12.5841 14.4169 -9.2855 -0.0000 0.0000 0.0000 1.6452 13.3027 6.545 -12.9818 -21.2605 -2.4467 9.0491 38.7722 33.787 0.0 0.0 0.0 7.1250 0.0 -0.0 45.6409 57.6427 -16.3545
0.0541 17.4865 8.0636 -7.9617 0.3083 10.9771 0.0000 0.0000 0.0000 -20.9216 -45.5335 25.1816 0.0649 -1.6443 -4.5235 -5.7721 43.9132 -43.5335 0.5068 4.5635 12.6677 0.0000 0.0000 0.0000 26.1482 25.5273 4.0666 -0.0095 -0.6277 1.7250 1.2190 -22.3163 -20.8923 -0.7883 -5.6679 15.8237 3.6836 0.9706 -1.0033 2.3673 1.7619 -11.7549 0.3485 0.6430 -12.0449 -11.9250 -12.4475 1.9127 10.6085 -18.2119 14.0113 4.0903 -9.0712 5.9977 0.0000 0.0000 0.0000 -4.6434 13.0162 -10.781 10.6883 -17.8089 1.6793 9.9454 36.6403 15.4124 0.0 0.0 0.0 -7.1250 0.0 0.0 -11.8931 14.5736 -8.7109 0.0000 0.0000 0.0000 1.6269 13.3115 6.5763 -12.9883 -21.2701 -2.449 9.156 38.7053 33.7546 0.0 0.0 0.0 7.1250 0.0 -0.0 45.7026 57.5954 -16.3287
0.0541 17.4862 8.0640 -7.9502 0.3293 10.9895 0.0000 0.0000 0.0000 -20.8863 -45.5132 25.1084 0.0645 -1.6381 -4.5066 -5.7788 43.8949 -43.4577 0.4995 4.5308 12.5750 0.0000 0.0000 0.0000 26.1438 25.5923 4.0843 -0.0074 -0.5538 1.5217 1.2658 -22.6583 -21.1393 -0.0414 -1.3135 3.6120 3.6581 0.9534 -0.9900 2.3817 1.7404 -11.7763 0.3803 0.6356 -12.0798 -11.9025 -12.4511 1.9274 10.5374 -18.2102 14.0361 4.0662 -9.0731 5.9943 -0.0000 0.0000 0.0000 -4.5752 13.0466 -11.8564 10.5362 -17.5739 1.6331 11.1271 34.4084 15.2059 0.0 0.0 0.0 -7.1250 0.0 0.0 -11.1060 14.6949 -8.0813 -0.0000 0.0000 0.0000 1.5933 13.3588 6.647 -12.9942 -21.2788 -2.4512 9.1078 38.7596 33.6598 0.0 0.0 0.0 7.1250 0.0 -0.0 45.5608 57.5367 -16.1947
0.0512 17.4893 8.0678 -7.6406 0.2872 11.1073 0.0000 0.0000 0.0000 -21.2859 -45.7956 25.1411 0.0623 -1.6102 -4.4295 -5.7622 43.9912 -43.7762 0.5092 4.5740 12.6974 0.0000 0.0000 0.0000 25.7285 25.7087 4.0027 -0.0061 -0.5049 1.3875 1.3264 -22.9111 -21.0035 -0.0299 -1.1160 3.0681 3.2576 0.9403 -1.1321 2.3279 1.6884 -11.8173 0.5511 0.6482 -12.0462 -11.8950 -12.4540 1.9375 10.5179 -18.2122 14.0339 4.0598 -9.0751 5.9896 0.0000 0.0000 0.0000 -4.5593 13.0903 -12.6652 10.4394 -17.424 1.604 12.3595 32.4192 14.8978 0.0 0.0 0.0 -7.1250 0.0 0.0 -10.2810 14.9115 -7.4114 0.0000 0.0000 0.0000 1.4962 13.35 6.9244 -12.9057 -21.1489 -2.4192 8.9304 38.7062 33.6125 0.0 0.0 0.0 7.1250 0.0 -0.0 45.3525 57.5408 -16.1028
0.0467 17.4965 8.0880 -7.4168 0.4131 11.4713 0.0000 0.0000 0.0000 -21.4905 -46.3712 25.0608 0.0610 -1.5933 -4.3831 -5.8360 44.2453 -44.1319 0.5137 4.5938 12.7536 0.0000 0.0000 0.0000 25.3433 25.7863 3.7737 -0.0043 -0.4234 1.1634 1.3588 -23.0802 -21.0197 -0.0487 -1.4238 3.9158 2.9389 0.8848 -1.8308 2.3093 1.5603 -11.8683 0.7283 0.6214 -11.6843 -11.8922 -12.4517 1.9366 10.5072 -18.2045 14.0075 4.0574 -9.0719 5.9793 0.0000 0.0000 0.0000 -4.598 13.1979 -13.9766 10.3895 -17.3465 1.5891 14.6769 28.8122 14.3028 0.0 0.0 0.0 -7.1250 0.0 0.0 -8.7136 15.3304 -6.1726 0.0000 0.0000 0.0000 1.3138 13.2538 7.445 -12.7202 -20.8759 -2.3526 8.8287 38.3858 33.6601 0.0 0.0 0.0 7.1250 0.0 -0.0 45.3106 57.598 -16.1491
0.0446 17.5001 8.0951 -7.2406 0.4291 11.6485 0.0000 0.0000 0.0000 -21.6658 -46.6591 25.0199 0.0601 -1.5824 -4.3529 -5.8759 44.3898 -44.3435 0.5254 4.6450 12.8987 0.0000 0.0000 0.0000 25.0749 25.9078 3.6652 -0.0038 -0.3972 1.0913 1.3776 -23.1924 -21.0675 -0.0612 -1.5957 4.3897 2.6975 0.8595 -2.1091 2.2914 1.5009 -11.8977 0.8513 0.6169 -11.5529 -11.8662 -12.4598 1.8947 10.4464 -18.2039 14.0216 4.0320 -9.0715 5.9827 -0.0000 -0.0000 0.0000 -4.6172 13.2111 -14.1124 10.4021 -17.3661 1.5929 14.885 28.533 14.0204 0.0 0.0 0.0 -7.1250 0.0 0.0 -8.5711 15.6008 -6.0189 -0.0000 -0.0000 0.0000 1.2003 13.1815 7.7067 -12.6122 -20.7164 -2.3143 8.766 38.2682 33.6541 0.0 0.0 0.0 7.1250 0.0 -0.0 45.2480 57.6073 -16.1306
0.0452 17.5003 8.0949 -7.2235 0.4396 11.6739 0.0000 0.0000 0.0000 -21.5923 -46.6050 24.8825 0.0597 -1.5767 -4.3372 -5.9286 44.3916 -44.1368 0.5047 4.5541 12.6411 0.0000 0.0000 0.0000 25.0466 25.9461 3.6473 -0.0039 -0.4018 1.1040 1.3808 -23.2255 -21.1113 -0.0556 -1.5221 4.1867 2.6783 0.8487 -2.1131 2.2948 1.4860 -11.9103 0.8670 0.6117 -11.5657 -11.8323 -12.4731 1.8695 10.3885 -18.2136 14.0433 4.0064 -9.0762 5.9864 0.0000 0.0000 0.0000 -4.6307 13.2201 -14.0808 10.3976 -17.3591 1.5915 14.9332 28.5239 14.0672 0.0 0.0 0.0 -7.1250 0.0 0.0 -8.5384 15.5493 -6.005 0.0000 0.0000 0.0000 1.1806 13.1697 7.7099 -12.5970 -20.694 -2.3089 8.7017 38.3416 33.535 0.0 0.0 0.0 7.1250 0.0 -0.0 45.0666 57.5338 -15.9627
0.0454 17.5004 8.0950 -7.2239 0.4414 11.6748 0.0000 0.0000 0.0000 -21.5819 -46.5962 24.8680 0.0597 -1.5769 -4.3378 -5.9538 44.4085 -44.0792 0.4858 4.4691 12.4003 0.0000 0.0000 0.0000 25.0444 25.9487 3.6417 -0.0040 -0.4062 1.1161 1.3770 -23.2170 -21.1383 -0.0703 -1.7111 4.7079 2.6753 0.8387 -2.0980 2.3069 1.4742 -11.9140 0.8826 0.6068 -11.5799 -11.8333 -12.4808 1.8335 10.3610 -18.2224 14.0986 3.9934 -9.0799 6.0085 -0.0000 0.0000 0.0000 -4.6452 13.2389 -13.9558 10.4020 -17.366 1.5928 14.8886 28.7027 14.1803 0.0 0.0 0.0 -7.1250 0.0 0.0 -8.5691 15.4378 -6.0479 -0.0000 0.0000 0.0000 1.1742 13.1577 7.7298 -12.5897 -20.6831 -2.3063 8.6859 38.3716 33.4992 0.0 0.0 0.0 7.1250 0.0 -0.0 45.0156 57.5109 -15.9131
0.0456 17.5004 8.0960 -7.2342 0.4394 11.6692 0.0000 0.0000 0.0000 -21.6331 -46.6465 24.9577 0.0600 -1.5809 -4.3488 -5.9587 44.4547 -44.1800 0.4814 4.4494 12.3444 0.0000 0.0000 0.0000 25.0506 25.9025 3.6265 -0.0040 -0.4062 1.1161 1.3808 -23.2087 -21.0682 -0.0804 -1.8285 5.0320 2.6938 0.8356 -2.0819 2.3167 1.4723 -11.9102 0.8828 0.6046 -11.5852 -11.8289 -12.4941 1.7703 10.3131 -18.2330 14.1550 3.9712 -9.0841 6.0334 0.0000 -0.0000 0.0000 -4.6567 13.2648 -13.9961 10.4740 -17.4775 1.6144 14.605 29.1968 13.6084 0.0 0.0 0.0 -7.1250 0.0 0.0 -8.7624 16.0418 -6.0721 0.0000 -0.0000 0.0000 1.1729 13.1498 7.7796 -12.5962 -20.6927 -2.3086 8.6969 38.3201 33.5458 0.0 0.0 0.0 7.1250 0.0 -0.0 45.0737 57.5429 -15.9764
0.0454 17.5004 8.0971 -7.2466 0.4351 11.6759 0.0000 0.0000 0.0000 -21.6200 -46.6595 24.9583 0.0598 -1.5774 -4.3391 -5.9332 44.4386 -44.2404 0.4873 4.4763 12.4207 0.0000 0.0000 0.0000 25.0669 25.9184 3.6294 -0.0039 -0.4050 1.1129 1.3853 -23.2202 -21.0403 -0.0750 -1.7666 4.8611 2.7133 0.8392 -2.0814 2.3171 1.4783 -11.9133 0.8719 0.6055 -11.5888 -11.8591 -12.4969 1.7693 10.3584 -18.2410 14.1309 3.9887 -9.0874 6.0339 0.0000 -0.0000 0.0000 -4.6468 13.3165 -14.2511 10.6138 -17.694 1.6566 14.0459 29.9186 12.3983 0.0 0.0 0.0 -7.1250 0.0 0.0 -9.1566 17.3108 -6.096 0.0000 -0.0000 0.0000 1.1832 13.1678 7.8406 -12.6180 -20.7249 -2.3163 8.6918 38.2194 33.5416 0.0 0.0 0.0 7.1250 0.0 -0.0 45.0647 57.5408 -15.9699
